<svg width="183" height="100" viewBox="0 0 183 100" fill="none" xmlns="http://www.w3.org/2000/svg">
<path d="M121.711 22.4802H100.982V33.7792H102.006V61.903L109.958 61.8288V33.7792H114.33V50.6813H111.902V61.9803H123.365V61.699L123.349 24.0162C123.349 23.3796 122.584 22.4709 121.705 22.4709" fill="#034EA2"/>
<path d="M23.4536 22.4802H4.67158V49.9859H1.08922V61.6959H12.5337V33.7792H17.2423V61.6959H25.1198L25.0982 24.2542C25.0982 23.4476 24.444 22.4802 23.4536 22.4802Z" fill="#034EA2"/>
<path d="M36.8203 22.4773H27.9431V33.7794H29.3995V61.6961H38.4433V24.106C38.4191 23.6825 38.2404 23.2826 37.9412 22.9823C37.642 22.6821 37.2431 22.5024 36.8203 22.4773Z" fill="#034EA2"/>
<path d="M71.9929 22.4771H63.1187V33.7792H64.5721V61.6959H73.619V24.1058C73.6211 23.8914 73.5804 23.6787 73.4994 23.4801C73.4184 23.2816 73.2987 23.1012 73.1473 22.9496C72.9959 22.7979 72.8158 22.678 72.6176 22.5969C72.4194 22.5158 72.207 22.4751 71.9929 22.4771Z" fill="#034EA2"/>
<path d="M59.3173 22.4802H40.6958V33.7792H51.9366V61.6959H60.9804L60.9589 23.7473C60.9434 23.3487 60.1227 22.4802 59.3173 22.4802Z" fill="#034EA2"/>
<path d="M84.6099 42.4667H76.6614V71.6227C79.2178 72.5478 81.8958 73.0924 84.6099 73.2391V42.4667ZM97.9489 60.231L97.9304 24.1738C97.9453 23.9515 97.9133 23.7286 97.8365 23.5194C97.7598 23.3103 97.64 23.1197 97.4849 22.96C97.3298 22.8002 97.1428 22.675 96.9363 22.5923C96.7297 22.5097 96.508 22.4715 96.2858 22.4802H76.8743V33.7792H88.9081V50.6813H86.4798V61.9803H96.2055C96.9708 61.9803 97.952 61.5939 97.952 60.231" fill="#034EA2"/>
<mask id="mask0_378_1370" style="mask-type:luminance" maskUnits="userSpaceOnUse" x="1" y="64" width="165" height="26">
<path d="M165.782 64.7649H1.08614V89.7673H165.782V64.7649Z" fill="white"/>
</mask>
<g mask="url(#mask0_378_1370)">
<path d="M166.307 75.5044C164.065 76.1008 161.755 76.4021 159.435 76.4007C154.437 76.4007 150.228 74.5278 145.356 72.3582C139.373 69.6942 132.597 66.6717 123.109 66.6717C113.948 66.6717 107.323 69.6293 101.482 72.2346C96.3999 74.5 92.0122 76.4594 86.4767 76.4594C80.864 76.4594 75.9857 74.3207 70.8451 72.0585C65.0287 69.5057 58.4348 66.6099 50.0883 66.6099C41.4487 66.6099 34.4691 69.6169 28.3133 72.2686C23.0247 74.5525 18.458 76.5212 13.5025 76.5212C3.27381 76.5212 -7.74173 67.0518 -8.06572 66.7737V76.8055C-2.94982 80.2051 5.2023 84.5658 13.5025 84.5658C20.0995 84.5658 25.885 82.0718 31.4792 79.6581C37.1844 77.1856 43.0841 74.6545 50.0729 74.6545C56.7347 74.6545 62.011 76.9724 67.599 79.4263C73.2858 81.9234 79.1638 84.504 86.4612 84.504C93.7062 84.504 99.3158 82.0007 104.737 79.5808C110.347 77.0775 115.642 74.7163 123.093 74.7163C130.872 74.7163 136.565 77.2505 142.073 79.7044C147.303 82.0347 152.715 84.4453 159.42 84.4453C161.732 84.4472 164.038 84.2247 166.307 83.7808V75.5044Z" fill="#44C8F5"/>
</g>
<path d="M5.48617 99.7774V94.8665C5.48617 94.2051 5.25167 93.6921 4.43707 93.6921H2.27716V99.6136C2.27806 99.6356 2.27435 99.6575 2.26625 99.678C2.25815 99.6985 2.24586 99.7171 2.23016 99.7325C2.21446 99.748 2.1957 99.7599 2.1751 99.7676C2.15449 99.7754 2.1325 99.7787 2.11054 99.7774H0V98.7977H1.07687V92.7093H4.71786C6.02924 92.7093 6.67721 93.4851 6.67721 94.8727V99.7681L5.48617 99.7774ZM10.4632 96.4736V93.6921H9.4419V92.7093H11.4969C11.5189 92.7089 11.5407 92.7129 11.5612 92.7212C11.5816 92.7294 11.6001 92.7417 11.6157 92.7573C11.6312 92.7729 11.6435 92.7914 11.6517 92.8119C11.6599 92.8323 11.6639 92.8542 11.6635 92.8762V96.4736H10.4632ZM20.3649 99.7774H17.4552V98.7977H19.4824V95.2157C19.4824 94.4957 19.0134 93.5963 18.0877 93.6705H16.6807L16.0204 99.7557H14.8077L15.5236 93.6705H14.4899V92.6877H18.0877C19.7015 92.6877 20.6673 93.7817 20.6673 95.2065V98.9151L20.3649 99.7774ZM24.2527 99.7774V93.6921H23.2869V92.7093H25.2864C25.3303 92.7101 25.3722 92.728 25.4033 92.7591C25.4344 92.7902 25.4522 92.8322 25.453 92.8762V99.7774H24.2527ZM34.1945 99.9999L31.5316 97.3451L30.3467 95.6144L29.0107 99.7774H27.795L29.492 94.6193L28.3473 93.1389L29.2298 92.4065L32.0438 96.1676L33.4076 92.7093H34.9258V93.6921H34.3333L32.8584 97.0917L35.0646 99.2334L34.1945 99.9999ZM40.2607 99.7774H38.9802L41.8467 93.6921H37.4066V91.0374H38.5914V92.7093H43.0069C43.0279 92.7101 43.0484 92.7151 43.0674 92.7239C43.0864 92.7328 43.1035 92.7454 43.1176 92.7609C43.1316 92.7765 43.1425 92.7947 43.1494 92.8145C43.1564 92.8343 43.1593 92.8553 43.1581 92.8762V93.6921L40.2607 99.7774ZM50.0791 99.7774V94.8665C50.0791 94.2051 49.8322 93.6921 49.0331 93.6921H45.7901V92.7093H49.32C50.6191 92.7093 51.267 93.4851 51.267 94.8727V99.7681L50.0791 99.7774ZM45.7901 99.7774V95.6979H46.9904V99.7774H45.7901ZM63.6217 99.7774H57.9103C57.8902 99.7829 57.869 99.7835 57.8486 99.7791C57.8282 99.7747 57.8092 99.7654 57.7931 99.7521C57.7771 99.7387 57.7645 99.7217 57.7564 99.7024C57.7483 99.6831 57.745 99.6622 57.7468 99.6414V92.8762C57.7459 92.8543 57.7495 92.8325 57.7574 92.8121C57.7653 92.7917 57.7773 92.7731 57.7926 92.7574C57.8079 92.7418 57.8262 92.7295 57.8465 92.7212C57.8667 92.7129 57.8884 92.7089 57.9103 92.7093H63.6217C63.6654 92.7101 63.707 92.7281 63.7375 92.7593C63.7681 92.7905 63.7853 92.8325 63.7852 92.8762V99.5858C63.7839 99.6316 63.767 99.6756 63.7372 99.7105C63.7075 99.7453 63.6667 99.7689 63.6217 99.7774ZM58.947 93.6921V98.7977H62.585V93.6921H58.947ZM67.5651 96.4736V93.6921H66.5438V92.7093H68.5988C68.6206 92.7089 68.6423 92.7129 68.6626 92.7212C68.6828 92.7295 68.7012 92.7418 68.7165 92.7574C68.7318 92.7731 68.7438 92.7917 68.7516 92.8121C68.7595 92.8325 68.7631 92.8543 68.7623 92.8762V96.4736H67.5651ZM77.4637 99.7774H74.5539V98.7977H76.5812V95.2157C76.5812 94.4957 76.1122 93.5963 75.1896 93.6705H73.7887L73.1284 99.7557H71.9065L72.6255 93.6705H71.5887V92.6877H75.1896C76.8033 92.6877 77.7691 93.7817 77.7691 95.2065V98.9151L77.4637 99.7774ZM85.0912 99.7774V94.8665C85.0912 94.2051 84.8413 93.6921 84.0421 93.6921H80.8023V92.7093H84.3322C85.6281 92.7093 86.2761 93.4851 86.2761 94.8727V99.7681L85.0912 99.7774ZM80.8023 99.7774V95.6979H82.0026V99.7774H80.8023ZM97.955 99.7774V94.8665C97.955 94.2051 97.7205 93.6921 96.909 93.6921H94.7491V99.6136C94.75 99.6353 94.7463 99.657 94.7384 99.6773C94.7305 99.6975 94.7185 99.7159 94.7031 99.7313C94.6878 99.7467 94.6694 99.7587 94.6492 99.7667C94.6289 99.7746 94.6073 99.7782 94.5856 99.7774H92.475V98.7977H93.5488V92.7093H97.1898C98.5012 92.7093 99.1492 93.4851 99.1492 94.8727V99.7681L97.955 99.7774ZM105.345 99.7774V93.6921H101.914V92.7093H106.382C106.404 92.7089 106.425 92.7129 106.446 92.7212C106.466 92.7295 106.484 92.7418 106.499 92.7574C106.515 92.7731 106.527 92.7917 106.535 92.8121C106.543 92.8325 106.546 92.8543 106.545 92.8762V99.7774H105.345ZM109.304 99.7774V98.7977H112.929V94.8665C112.929 94.2051 112.683 93.6921 111.883 93.6921H109.304V92.7093H112.173C113.482 92.7093 114.13 93.4851 114.13 94.8727V98.7884H115V99.7681L109.304 99.7774ZM122.143 99.7774V93.6921H118.956V99.7774H117.755V92.7093H123.177C123.199 92.7089 123.22 92.7129 123.241 92.7212C123.261 92.7294 123.28 92.7417 123.295 92.7573C123.311 92.7729 123.323 92.7914 123.331 92.8119C123.34 92.8323 123.344 92.8542 123.343 92.8762V99.7774H122.143Z" fill="#034EA2"/>
<path d="M136.713 31.14C137.467 31.132 138.201 30.9009 138.824 30.4757C139.447 30.0505 139.931 29.4502 140.214 28.7505C140.497 28.0507 140.566 27.2827 140.415 26.5431C140.263 25.8036 139.896 25.1257 139.36 24.5946C138.824 24.0635 138.143 23.7031 137.404 23.5587C136.664 23.4143 135.898 23.4923 135.202 23.7831C134.506 24.0738 133.912 24.5642 133.494 25.1925C133.076 25.8208 132.853 26.5589 132.853 27.3139C132.859 28.3338 133.269 29.3098 133.992 30.0272C134.716 30.7447 135.695 31.1449 136.713 31.14Z" fill="#034EA2"/>
<path d="M140.345 44.0213C140.355 40.8705 141.266 37.7886 142.971 35.1404C144.675 32.4921 147.102 30.3886 149.963 29.0786L151.228 19.0344C147.376 19.9128 143.776 21.6612 140.703 24.1462C141.45 25.0484 141.861 26.1822 141.866 27.3541C141.862 28.2484 141.627 29.1264 141.182 29.902C140.738 30.6776 140.1 31.3243 139.331 31.7786C138.562 32.2329 137.688 32.4793 136.795 32.4936C135.903 32.5079 135.022 32.2896 134.238 31.8601C132.192 35.5891 131.12 39.7756 131.122 44.0306C131.133 48.764 132.454 53.4016 134.939 57.4277C137.424 61.4538 140.976 64.7105 145.198 66.8356L146.467 56.8069C144.556 55.2705 143.014 53.3241 141.954 51.1113C140.895 48.8984 140.345 46.4755 140.345 44.0213Z" fill="#034EA2"/>
<path d="M157.13 5.03115C157.626 5.02445 158.108 4.87123 158.516 4.59075C158.925 4.31028 159.242 3.91509 159.427 3.45485C159.612 2.99462 159.656 2.4899 159.556 2.00417C159.455 1.51843 159.213 1.07336 158.861 0.724931C158.508 0.376498 158.06 0.140257 157.574 0.0459118C157.088 -0.0484331 156.585 0.00332946 156.128 0.194694C155.671 0.386059 155.28 0.708485 155.006 1.12142C154.731 1.53435 154.585 2.01936 154.585 2.51546C154.587 2.84812 154.654 3.17712 154.783 3.48364C154.912 3.79016 155.101 4.06819 155.337 4.30183C155.573 4.53548 155.854 4.72016 156.161 4.8453C156.469 4.97044 156.798 5.03359 157.13 5.03115Z" fill="#034EA2"/>
<path d="M162.9 19.0312L164.159 29.1342C167.017 30.4481 169.439 32.5535 171.141 35.2018C172.842 37.8501 173.752 40.9307 173.762 44.08C173.763 45.7332 173.511 47.3769 173.015 48.9537H166.597L167.671 56.8284L168.155 60.6143H176.829C180.813 56.0065 183.004 50.1138 183 44.0182C183 31.8384 174.41 21.6613 162.9 19.0312Z" fill="#034EA2"/>
<path d="M158.738 5.9646L161.888 46.7874H164.814L159.725 5.3125C159.432 5.57938 159.099 5.79933 158.738 5.9646Z" fill="#034EA2"/>
<path d="M154.492 5.28149L149.401 46.7873H152.326L155.48 5.94596C155.119 5.77613 154.786 5.55206 154.492 5.28149Z" fill="#034EA2"/>
<path d="M157.782 6.2613C157.566 6.29784 157.349 6.31747 157.13 6.32002C156.877 6.3206 156.623 6.29575 156.374 6.24585V35.8469L155.264 36.6196V43.9132L157.032 46.7843L157.803 46.0982L157.288 44.7971L158.886 43.9132V36.6196L157.782 35.8469V6.2613Z" fill="#034EA2"/>
<path d="M151.814 53.5L157.063 56.3834L157.072 56.3958L157.075 56.3927L157.078 56.3958L157.09 56.3834L162.336 53.5L162.95 60.7627H166.486L165.051 49.1331H161.962L157.075 52.0567L152.187 49.1331H149.102L147.664 60.7627H151.203L151.814 53.5Z" fill="#44C8F5"/>
<path d="M165.508 68.0408C163.658 67.2908 161.59 67.2908 159.741 68.0408C158.129 68.6217 156.366 68.6217 154.755 68.0408C153.829 67.7031 152.857 67.5133 151.873 67.4783C150.887 67.5112 149.913 67.7011 148.988 68.0408C148.781 68.1119 148.762 68.115 148.679 68.149L148.478 68.1953C149.865 68.6766 151.289 69.0394 152.737 69.2801C154.199 69.5137 155.677 69.6304 157.158 69.6293C157.711 69.6293 158.226 69.6293 158.701 69.586C161.088 69.4427 163.444 68.9706 165.702 68.1829C165.823 68.1335 165.764 68.1273 165.508 68.0408Z" fill="#44C8F5"/>
<path d="M168.007 65.4355H167.976C167.155 65.4151 166.342 65.2724 165.563 65.0121C164.622 64.6641 163.631 64.4701 162.629 64.4373C161.068 64.4373 159.204 65.4355 157.198 65.4355C156.383 65.422 155.575 65.2791 154.804 65.0121C152.923 64.2515 150.822 64.2515 148.941 65.0121C148.339 65.2065 147.719 65.337 147.09 65.4015L146.902 66.9468C147.761 66.8932 148.61 66.7269 149.426 66.4523C150.224 66.1842 151.054 66.0191 151.894 65.9609C152.722 66.026 153.539 66.1984 154.323 66.4739C156.219 67.1441 158.288 67.1441 160.185 66.4739C160.978 66.1845 161.811 66.0187 162.654 65.9825C163.482 66.0191 164.299 66.1849 165.076 66.4739C166.022 66.7942 167.012 66.9642 168.01 66.9777H168.609C169.498 66.5404 170.361 66.0523 171.195 65.5158C171.617 65.2253 172.598 64.5331 172.598 64.5331C171.868 64.646 171.147 64.8081 170.439 65.0183C169.654 65.2796 168.834 65.4202 168.007 65.4355Z" fill="#44C8F5"/>
<path d="M175.403 61.7238C174.716 61.5297 174.007 61.4258 173.293 61.4148C172.291 61.4495 171.3 61.6425 170.358 61.9865C169.573 62.2506 168.752 62.3943 167.924 62.413C167.082 62.4192 166.246 62.2748 165.455 61.9865C163.575 61.2266 161.473 61.2266 159.593 61.9865C158.797 62.2569 157.964 62.4008 157.124 62.413C156.302 62.3911 155.488 62.2473 154.708 61.9865C152.828 61.2259 150.726 61.2259 148.846 61.9865C148.398 62.1331 147.94 62.2447 147.476 62.3203L147.281 63.8903C147.98 63.8113 148.669 63.659 149.336 63.436C150.13 63.149 150.962 62.9833 151.805 62.9446C152.633 62.9818 153.45 63.1476 154.227 63.436C156.123 64.1097 158.193 64.1097 160.089 63.436C160.884 63.152 161.716 62.9864 162.558 62.9446C163.386 62.9853 164.204 63.151 164.983 63.436C166.879 64.1104 168.95 64.1104 170.846 63.436C171.624 63.1521 172.441 62.9864 173.268 62.9446C173.615 62.9381 173.961 62.9734 174.299 63.0497L174.422 63.0775C174.758 62.7684 175.085 62.4779 175.403 62.1503L175.434 62.1225C175.536 62.0205 175.632 61.9155 175.743 61.8135L175.403 61.7238Z" fill="#44C8F5"/>
</svg>
